<svg xmlns="http://www.w3.org/2000/svg" xmlns:xlink="http://www.w3.org/1999/xlink" id="Layer_2" data-name="Layer 2" viewBox="0 0 300 300"><defs><style> .cls-1 { fill: #fff; } .cls-2 { fill: url(#linear-gradient); } </style><linearGradient id="linear-gradient" x1="74.97" y1="150" x2="225.03" y2="150" gradientUnits="userSpaceOnUse"><stop offset="0" stop-color="#b79d4f"/><stop offset=".49" stop-color="#dcc080"/><stop offset="1" stop-color="#b79d4f"/></linearGradient></defs><g id="Layer_1-2" data-name="Layer 1"><g><circle class="cls-1" cx="150" cy="150" r="150"/><path class="cls-2" d="m130.88,82.37c1-2.93,2.02-5.85,3-8.79,1.91-5.73,3.81-11.47,5.71-17.2.3-.91.55-1.77.4-2.81-.28-2.02.74-2.83,2.76-2.14,1.5.52,2.35.48,2.78-1.28.41-1.71,1.44-3.15,3.43-2.44,2.11.75,1.8,2.56,1.23,4.28-4.44,13.37-8.86,26.76-13.36,40.11-.58,1.72-.56,3.13.25,4.79,2.62,5.35,5.1,10.78,7.54,16.21.61,1.36,1.18,1.72,2.72,1.26,6.02-1.84,12.16-2.57,18.32-.73,10.06,3.01,15.15,10.64,18.17,20.05,1.06,3.3,1.71,6.71,1.9,10.19.1,1.76.36,3.2,2.78,2.8,1.77-.3,2.44.88,2.43,2.51-.02,2.09-.08,4.19-.09,6.28-.02,1.94-.98,2.66-2.9,2.64-3.97-.04-4.41.44-3.59,4.32,1.05,5.02,3.11,9.65,6.08,13.83,2.03,2.85,4.55,4.33,8.32,2.98,3.01-1.08,5.59.57,6.45,3.73.77,2.84,2.37,5.02,4.72,6.79,11.81,8.86,17.61,24.29,14.11,37.38-1.65,6.19-4.93,11.47-9.77,15.53-12.09,10.14-26.09,16.48-41.77,17.86-18.58,1.63-33.14-10.92-35.53-29.48-.45-3.46-.54-6.89-.09-10.36.39-3.04-.07-5.84-2.09-8.39-2.17-2.73-1.22-5.74,2.06-6.95,2.73-1,4.13-2.93,3.96-5.68-.4-6.63-3.02-12.45-7.02-17.68-1.13-1.47-2.29-1.38-3.61-.03-2.95,3.03-2.99,2.99-6.05.08-1.17-1.11-2.32-2.24-3.48-3.35-1.27-1.21-1.28-2.46.18-3.42,1.36-.89,1.43-1.79.49-2.96-1.31-1.63-2.71-3.2-3.93-4.9-1.22-1.69-2.26-3.5-3.4-5.29-.95.69-.97,1.74-1.26,2.62-10.19,30.55-20.35,61.11-30.52,91.67-.28.84-.51,1.71-.91,2.5-.6,1.2-1.62,1.83-2.98,1.41-1.38-.43-1.79-1.58-1.63-2.88.1-.79.4-1.56.7-2.3.59-1.46,1-2.73-1.25-3.13-1.47-.26-1.17-1.59-1.06-2.57.51-4.37,1.98-8.44,4.06-12.32.49-.92.95-1.87,1.28-2.85,9.74-29.27,19.68-58.47,29.09-87.84,3.85-12.02,8.55-23.75,12.1-35.87.46-1.57.48-2.9-.11-4.41-3.09-7.87-6.1-15.78-9.14-23.67-.17-.45-.24-1.04-.57-1.31-4.18-3.46-4.85-8.78-7.09-13.25-.97-1.94-1.73-3.98-2.83-5.87-.9-1.55-1.85-2.86-3.51-3.8-2.55-1.45-3.18-4.41-1.77-7.19.59-1.16,1.03-2.3,1.21-3.61.97-7.07,8.62-10.39,14.44-6.27,1.07.76,2.14,1.32,3.42,1.67,3.41.96,5.03,4.01,3.78,7.37-.54,1.44-.43,2.57.14,3.89,2.07,4.72,4.06,9.48,6.09,14.21.74,1.72,1.1,3.46,1.18,5.36.14,3.29,2.48,5.75,4.05,8.72Zm56.17,139.66c.25,0,.5,0,.75,0,0,3.7-.06,7.41.03,11.11.03,1.28-.69,1.6-1.61,2.03-.94.44-1.59.4-2.33-.4-5.09-5.5-10.2-10.98-15.34-16.44-.88-.93-.78-1.47.41-1.84,1.29-.39,1.52-1.03.94-2.33-2-4.48-3.9-9.02-5.76-13.56-.49-1.2-1.07-1.38-2.18-.85-1.45.69-2.96,1.27-4.45,1.88-1.07.44-2.13.47-2.67-.76-.59-1.33.14-2.13,1.34-2.63,1.41-.59,2.8-1.25,4.24-1.77,1.24-.45,1.59-1.02,1.02-2.33-2.32-5.31-4.54-10.67-6.82-16.01-.23-.54-.39-1.54-1.21-1.18-2.03.89-2.06-.74-2.5-1.82-5.64-14.05-11.26-28.11-16.88-42.16-1.82-4.56-1.87-4.63-6.06-1.83-2.37,1.59-5.07,2.96-6.09,5.95-1.2,3.51-2.3,7.05-3.52,10.55-.44,1.28-.46,2.5-.15,3.79,1.34,5.53,4.05,10.32,7.78,14.56,1.57,1.78,2.96,3.64,3.48,5.99.21.97.59,1.34,1.62,1.23,3.97-.41,6.81,1.63,9.09,4.53,4.06,5.16,6.48,11.13,7.84,17.49,1.21,5.68.37,10.92-4.31,14.97-.49.42-.69.86-.43,1.47,1.75,4.26,1.09,8.66.95,13.09-.57,17.84,13,30.72,30.08,28.05,11.99-1.87,22.96-6.83,32.78-14.03,3.95-2.89,6.94-6.7,8.75-11.34,4.08-10.46-.21-23.82-10.22-31.33-2.72-2.04-4.85-4.46-6.37-7.45-.49-.96-.99-1.5-2.2-1.38-5.04.48-8.95-1.76-11.96-5.54-4.5-5.65-7.25-12.17-8.38-19.29-.6-3.81-.08-7.45,3.19-10.09.85-.69.42-1.19.02-1.83-1.23-1.97-1.69-4.16-1.83-6.44-.27-4.4-1.4-8.58-3.26-12.55-4.18-8.92-10.84-12.46-20.57-10.96-1.51.23-2.98.69-4.49.96-1.92.35-2.41,1.02-1.48,3.04,6.65,14.49,13.15,29.05,19.71,43.59.48,1.06,1.39,2.09-.55,2.78-1,.35-.35,1.22-.08,1.85,1.76,4.15,3.5,8.31,5.31,12.44.7,1.61.87,3.89,2.32,4.61,1.23.61,2.87-1.02,4.39-1.51.15-.05.31-.1.46-.16,1.07-.43,1.95-.15,2.42.88.48,1.05.04,1.92-.94,2.42-1.07.55-2.18,1.06-3.32,1.44-1.34.45-1.73,1.03-1.09,2.46,1.95,4.33,3.78,8.73,5.57,13.13.52,1.27,1.07,1.96,2.45,1.12,1.8-1.09,2.14-.12,2.13,1.48-.03,3.62,0,7.25,0,10.87Zm-77.13-72.86c-.31.67-.47.94-.57,1.23-7.58,22.82-15.16,45.65-22.75,68.47-1.67,5.04-3.38,10.06-5.05,15.1-.22.65-.68,1.42.26,1.89.48.24,1.14.69,1.55.26.46-.49.68-1.24.91-1.91,8.49-25.49,16.94-50.99,25.5-76.46.93-2.77,1.22-5.39.14-8.58Zm22.97-61.84c.19-.29.37-.46.44-.68,3.28-9.83,6.55-19.66,9.83-29.48.31-.92.52-1.63-.76-2.03-1.28-.39-1.51.35-1.81,1.24-2.87,8.7-5.69,17.41-8.66,26.08-.66,1.93-.27,3.37.96,4.87Zm40.37,103.07c-.14-.36-.28-.73-.44-1.1-2.26-5.31-4.53-10.61-6.76-15.93-.43-1.02-.81-1.59-2.09-1.05-1.29.54-1.19,1.24-.7,2.24.39.79.7,1.62,1.04,2.43,1.95,4.57,3.9,9.14,5.85,13.7.28.67.51,1.47,1.5.95.59-.31,1.47-.28,1.6-1.25Zm-9.41,4.56c.91-.38,2.05-.48,1.34-2.1-2.38-5.45-4.65-10.94-6.95-16.43-.35-.85-.71-1.36-1.78-.89-.98.43-1.08.93-.68,1.86,2.35,5.46,4.65,10.95,6.98,16.42.21.49.34,1.12,1.1,1.14Zm17.85,15.33c-.05-.14-.07-.22-.1-.29-2.1-4.96-4.2-9.91-6.32-14.87-.45-1.06-1.18-.47-1.81-.22-.71.28-1.29.56-.86,1.57,2.11,4.87,4.17,9.76,6.23,14.64.33.79.79.9,1.5.48.58-.34,1.49-.34,1.36-1.32Zm-20.88-36.53c-.98.38-2.01.59-1.33,2.16,2.39,5.45,4.68,10.95,6.98,16.44.37.89.77,1.23,1.79.8,1.07-.45,1-1,.63-1.86-2.35-5.47-4.66-10.95-7-16.42-.21-.49-.32-1.13-1.07-1.11Zm-38.09-63.58c-2.35,7.08-4.57,13.77-7,21.1,5.57-5.11,9.4-16.58,7-21.1Zm54.86,101.5c-2.07-4.84-4.24-9.95-6.48-15.04-.29-.65-.97-.3-1.5-.08-.71.29-1.03.73-.7,1.5,2.09,4.89,4.17,9.77,6.26,14.66.27.62.72.85,1.36.54.55-.27,1.3-.38,1.06-1.58Zm-3.59,1.92c-.05-.12-.08-.2-.12-.27-2.11-4.95-4.22-9.89-6.32-14.85-.36-.86-.92-.68-1.57-.39-.64.28-1.19.57-.82,1.42.45,1.03.89,2.06,1.33,3.1,1.6,3.77,3.2,7.54,4.8,11.3.29.69.61,1.39,1.56.89.52-.27,1.34-.3,1.13-1.2Z"/></g></g></svg>