<svg xmlns="http://www.w3.org/2000/svg" xmlns:xlink="http://www.w3.org/1999/xlink" id="Layer_2" data-name="Layer 2" viewBox="0 0 300 300"><defs><style> .cls-1 { fill: #fff; } .cls-2 { fill: url(#linear-gradient); } </style><linearGradient id="linear-gradient" x1="55.48" y1="150" x2="244.52" y2="150" gradientUnits="userSpaceOnUse"><stop offset="0" stop-color="#b79d4f"/><stop offset=".49" stop-color="#dcc080"/><stop offset="1" stop-color="#b79d4f"/></linearGradient></defs><g id="Layer_1-2" data-name="Layer 1"><g><circle class="cls-1" cx="150" cy="150" r="150"/><path class="cls-2" d="m103.53,117.7c0-.73,0-1.38,0-2.03.03-11.97-.08-23.94.18-35.9.11-4.87,2.57-8.96,6.1-12.33,4.17-3.98,9.08-6.1,14.91-6.09,17.16.04,34.32-.07,51.48.06,8.48.06,15.8,5.42,18.9,13.37,1.1,2.83,1.41,5.81,1.4,8.83-.02,11.05-.02,22.11-.03,33.16,0,.25.03.49.06.92,1.04,0,2.06-.02,3.08,0,7.59.15,14.25,3.95,17.22,11.65.85,2.21,1.25,4.72,1.28,7.1.13,11.8.07,23.6.08,35.4,0,2.18,0,2.19,2.16,2.2,1.99,0,3.99-.05,5.98,0,7.99.22,14.76,4.78,17.37,12.97.5,1.57.73,3.28.74,4.93.06,14.88.05,29.75.06,44.63,0,2.03,0,2.04-2.17,2.04-49.73-.04-99.47-.09-149.2-.13-9.89,0-19.78-.01-29.67,0-2.28,0-4.56.05-6.84.14-.86.03-1.15-.25-1.15-1.13.03-15.75-.03-31.5.08-47.25.02-3.16,1.48-6,3.34-8.54,2.46-3.35,5.63-5.8,9.68-6.93,1.31-.37,2.68-.65,4.03-.71,2.74-.11,5.48-.07,8.23-.04.74,0,1.02-.21,1.02-.99-.03-11.05-.04-22.11-.03-33.16,0-2.37-.16-4.77.19-7.09.39-2.56,1.51-4.93,3.07-7.07,3.22-4.42,7.48-7.19,12.89-8.01,1.74-.26,3.56-.04,5.55-.04Zm84.05-34.24c-1.55,1.31-3.17,2.54-4.63,3.94-2.97,2.86-6.18,5.22-10.45,5.61-4.56.42-8.4-1.08-11.63-4.27-1.33-1.31-2.68-2.6-3.99-3.93-2.65-2.68-8.82-3.02-11.64-1.28-1.19.73-2.28,1.65-3.34,2.57-1.57,1.35-2.98,2.91-4.63,4.15-3.38,2.54-7.25,3.24-11.39,2.51-3.4-.6-6-2.57-8.38-4.92-1.42-1.4-2.9-2.73-4.4-4.04-.36-.32-.9-.43-1.34-.63v34.47h76.47c.03-.42.08-.78.08-1.15,0-8.56,0-17.11-.02-25.67,0-2.45-.07-4.89-.11-7.34l-.59-.02Zm22.2,90.34c.01-10.51.03-21.03.03-31.54,0-.09-.1-.19-.35-.61-1.94,1.71-3.92,3.22-5.61,5.01-3.13,3.31-6.8,5.32-11.39,5.44-3.53.09-6.65-1.11-9.32-3.38-1.52-1.29-2.89-2.74-4.33-4.12-3.19-3.04-6.95-4.07-11.11-2.61-1.54.54-2.91,1.71-4.22,2.77-1.75,1.4-3.31,3.03-5.04,4.45-2.78,2.28-6.15,3.01-9.61,2.86-3.43-.15-6.37-1.75-8.88-4.11-1.58-1.48-3.18-2.92-4.79-4.37-1.7-1.52-3.8-2.05-5.98-2.19-3.25-.21-5.91,1.15-8.2,3.36-1.58,1.53-3.11,3.14-4.84,4.48-3.53,2.74-7.63,3.51-11.91,2.53-3.26-.74-5.85-2.77-8.19-5.16-1.41-1.44-3.04-2.68-4.61-3.96-.38-.31-.92-.42-1.41-.64v32.01h119.55c.07-.07.14-.14.21-.22Zm26.46,24.43c-.82.43-1.5.65-2.01,1.07-2.06,1.73-4.12,3.48-6.1,5.31-4.74,4.39-14.02,5.24-19.6.64-1.86-1.53-3.69-3.1-5.47-4.72-3.05-2.78-6.67-3.2-10.53-2.63-2.52.37-4.43,1.88-6.27,3.51-1.71,1.51-3.4,3.05-5.22,4.43-3.62,2.73-7.81,2.77-12.03,2.12-3.25-.5-5.81-2.4-8.15-4.59-2.68-2.52-5.22-5.23-9.22-5.54-1.97-.15-3.92-.27-5.83.46-2.35.9-4.18,2.51-5.89,4.27-3.66,3.77-7.88,6.05-13.38,5.7-2.8-.18-5.41-.66-7.63-2.35-2.21-1.68-4.23-3.6-6.35-5.39-1.53-1.29-3.16-2.24-5.24-2.6-4.35-.76-8.08.18-11.23,3.29-.95.93-1.92,1.83-2.87,2.77-4.04,3.96-9.06,4.85-14.34,4.13-3.23-.44-5.87-2.49-8.3-4.68-1.54-1.39-3.11-2.74-4.73-4.03-.58-.46-1.33-.71-2.16-1.14v32.06h172.54v-32.09Z"/></g></g></svg>